<?xml version="1.0" encoding="UTF-8"?>
<svg xmlns="http://www.w3.org/2000/svg" xmlns:xlink="http://www.w3.org/1999/xlink" viewBox="0 0 25 25" width="25px" height="25px"><g id="surface57986635"><path style=" stroke:none;fill-rule:nonzero;fill:rgb(90.196079%,49.411765%,13.333334%);fill-opacity:1;" d="M 3.125 5.207031 C 3.125 4.058594 4.058594 3.125 5.207031 3.125 L 19.792969 3.125 C 20.941406 3.125 21.875 4.058594 21.875 5.207031 L 21.875 19.792969 C 21.875 20.941406 20.941406 21.875 19.792969 21.875 L 5.207031 21.875 C 4.058594 21.875 3.125 20.941406 3.125 19.792969 Z M 3.125 5.207031 "/><path style=" stroke:none;fill-rule:nonzero;fill:rgb(10.980392%,3.137255%,0.784314%);fill-opacity:1;" d="M 4.6875 4.6875 L 4.6875 20.3125 L 20.3125 20.3125 L 20.3125 4.6875 Z M 12.339844 16.144531 L 11.941406 14.628906 L 9.902344 14.628906 L 9.507812 16.144531 L 7.925781 16.144531 L 10.238281 8.738281 L 11.605469 8.738281 L 13.9375 16.144531 Z M 16.066406 16.144531 L 14.625 16.144531 L 14.625 10.644531 L 16.066406 10.644531 Z M 15.914062 9.769531 C 15.769531 9.914062 15.582031 9.988281 15.339844 9.988281 C 15.097656 9.988281 14.910156 9.914062 14.769531 9.769531 C 14.625 9.621094 14.558594 9.4375 14.558594 9.21875 C 14.558594 8.996094 14.628906 8.8125 14.769531 8.667969 C 14.914062 8.527344 15.101562 8.457031 15.339844 8.457031 C 15.578125 8.457031 15.765625 8.527344 15.910156 8.667969 C 16.050781 8.8125 16.125 8.996094 16.125 9.21875 C 16.125 9.4375 16.054688 9.621094 15.914062 9.769531 Z M 15.914062 9.769531 "/><path style=" stroke:none;fill-rule:nonzero;fill:rgb(10.980392%,3.137255%,0.784314%);fill-opacity:1;" d="M 10.230469 13.382812 L 11.613281 13.382812 L 10.921875 10.746094 Z M 10.230469 13.382812 "/></g></svg>
