<?xml version="1.0" encoding="UTF-8"?>
<svg xmlns="http://www.w3.org/2000/svg" xmlns:xlink="http://www.w3.org/1999/xlink" viewBox="0 0 25 25" width="25px" height="25px">
<g id="surface56339444">
<path style=" stroke:none;fill-rule:nonzero;fill:rgb(60.784316%,34.901962%,71.372551%);fill-opacity:1;" d="M 12.5 2.082031 C 6.757812 2.082031 2.082031 6.757812 2.082031 12.5 C 2.082031 18.242188 6.757812 22.917969 12.5 22.917969 C 18.242188 22.917969 22.917969 18.242188 22.917969 12.5 C 22.917969 6.757812 18.242188 2.082031 12.5 2.082031 Z M 12.5 3.644531 C 17.398438 3.644531 21.355469 7.601562 21.355469 12.5 C 21.355469 16.492188 18.726562 19.855469 15.105469 20.964844 L 15.105469 18.300781 C 15.105469 17.304688 14.53125 16.453125 13.703125 16.027344 C 15.335938 15.714844 16.683594 14.789062 17.316406 13.546875 C 17.949219 12.300781 17.792969 10.886719 16.894531 9.75 C 17.125 9.039062 17.382812 7.792969 16.769531 6.808594 C 15.589844 6.808594 14.824219 7.621094 14.460938 8.125 C 13.839844 7.921875 13.171875 7.8125 12.5 7.8125 C 11.828125 7.8125 11.160156 7.917969 10.535156 8.121094 C 10.171875 7.617188 9.410156 6.808594 8.230469 6.808594 C 7.527344 7.9375 7.960938 9.148438 8.195312 9.640625 C 7.234375 10.773438 7.03125 12.210938 7.652344 13.484375 C 8.269531 14.761719 9.628906 15.710938 11.292969 16.03125 C 10.613281 16.382812 10.101562 17.019531 9.945312 17.789062 L 9.261719 17.789062 C 8.585938 17.789062 8.324219 17.515625 7.960938 17.050781 C 7.597656 16.589844 7.210938 16.277344 6.746094 16.148438 C 6.496094 16.121094 6.324219 16.3125 6.542969 16.484375 C 7.28125 16.984375 7.335938 17.808594 7.628906 18.347656 C 7.898438 18.832031 8.453125 19.269531 9.078125 19.269531 L 9.894531 19.269531 L 9.894531 20.964844 C 6.273438 19.855469 3.644531 16.492188 3.644531 12.5 C 3.644531 7.601562 7.601562 3.644531 12.5 3.644531 Z M 12.5 3.644531 "/>
</g>
</svg>
