
<?xml version="1.0" encoding="UTF-8"?>
<svg xmlns="http://www.w3.org/2000/svg" xmlns:xlink="http://www.w3.org/1999/xlink" viewBox="0 0 25 25" width="25px" height="25px">
<g id="surface55492945">
<path style=" stroke:none;fill-rule:nonzero;fill:rgb(94.509804%,76.862746%,5.882353%);fill-opacity:1;" d="M 22.636719 1.164062 C 22.542969 1.058594 22.410156 1 22.269531 1 L 2.730469 1 C 2.589844 1 2.457031 1.058594 2.363281 1.164062 C 2.269531 1.265625 2.222656 1.40625 2.234375 1.542969 L 3.992188 21.257812 C 4.011719 21.464844 4.15625 21.636719 4.355469 21.695312 L 12.359375 23.980469 C 12.40625 23.992188 12.449219 24 12.496094 24 C 12.542969 24 12.589844 23.992188 12.632812 23.980469 L 20.644531 21.695312 C 20.84375 21.636719 20.988281 21.464844 21.007812 21.257812 L 22.765625 1.542969 C 22.777344 1.40625 22.730469 1.265625 22.636719 1.164062 Z M 6 14.503906 L 9.5 15.472656 L 9.5 5.5 L 11.5 5.5 L 11.5 18.5 L 6 16.972656 Z M 19.027344 11 L 18.5 17.125 L 13.5 18.5 L 13.5 16.199219 L 16.875 15.273438 L 17 13.398438 L 13.5 14 L 13.5 5.5 L 19.5 5.5 L 19.328125 7.5 L 15.5 7.5 L 15.5 11.5 Z M 19.027344 11 "/>
</g>
</svg>
